{
    "asset" : {
        "generator" : "Khronos glTF Blender I/O v1.1.46",
        "version" : "2.0"
    },
    "scene" : 0,
    "scenes" : [
        {
            "name" : "Scene",
            "nodes" : [
                5
            ]
        }
    ],
    "nodes" : [
        {
            "mesh" : 0,
            "name" : "Object002_Material #9_0",
            "scale" : [
                0.41768527030944824,
                0.41768527030944824,
                0.41768527030944824
            ]
        },
        {
            "children" : [
                0
            ],
            "name" : "Object002",
            "rotation" : [
                -0.7071068286895752,
                0,
                0,
                0.7071068286895752
            ],
            "translation" : [
                -0.00030994415283203125,
                0.000110626220703125,
                -8.13545036315918
            ]
        },
        {
            "children" : [
                1
            ],
            "name" : "RootNode"
        },
        {
            "children" : [
                2
            ],
            "name" : "e8bbdd12f853450782613d7fc5e21a7b.fbx",
            "rotation" : [
                0.7071068286895752,
                0,
                0,
                0.7071068286895752
            ]
        },
        {
            "children" : [
                3
            ],
            "name" : "RootNode (model correction matrix)"
        },
        {
            "children" : [
                4
            ],
            "name" : "RootNode (gltf orientation matrix)"
        }
    ],
    "materials" : [
        {
            "doubleSided" : true,
            "emissiveFactor" : [
                1,
                1,
                1
            ],
            "emissiveTexture" : {
                "index" : 0,
                "texCoord" : 0
            },
            "name" : "Material_9",
            "pbrMetallicRoughness" : {
                "baseColorTexture" : {
                    "index" : 1,
                    "texCoord" : 0
                },
                "metallicFactor" : 0,
                "roughnessFactor" : 0.6000000238418579
            }
        }
    ],
    "meshes" : [
        {
            "name" : "Object002_Material #9_0",
            "primitives" : [
                {
                    "attributes" : {
                        "POSITION" : 0,
                        "NORMAL" : 1,
                        "TEXCOORD_0" : 2
                    },
                    "indices" : 3,
                    "material" : 0
                }
            ]
        }
    ],
    "textures" : [
        {
            "source" : 0
        },
        {
            "source" : 1
        }
    ],
    "images" : [
        {
            "bufferView" : 4,
            "mimeType" : "image/png",
            "name" : "Material_9_emissive"
        },
        {
            "bufferView" : 5,
            "mimeType" : "image/png",
            "name" : "Material_9_baseColor"
        }
    ],
    "accessors" : [
        {
            "bufferView" : 0,
            "componentType" : 5126,
            "count" : 1392,
            "max" : [
                60.555206298828125,
                195.36415100097656,
                81.511474609375
            ],
            "min" : [
                -60.55459213256836,
                -8.142040252685547,
                -81.51150512695312
            ],
            "type" : "VEC3"
        },
        {
            "bufferView" : 1,
            "componentType" : 5126,
            "count" : 1392,
            "type" : "VEC3"
        },
        {
            "bufferView" : 2,
            "componentType" : 5126,
            "count" : 1392,
            "type" : "VEC2"
        },
        {
            "bufferView" : 3,
            "componentType" : 5123,
            "count" : 1644,
            "type" : "SCALAR"
        }
    ],
    "bufferViews" : [
        {
            "buffer" : 0,
            "byteLength" : 16704,
            "byteOffset" : 0
        },
        {
            "buffer" : 0,
            "byteLength" : 16704,
            "byteOffset" : 16704
        },
        {
            "buffer" : 0,
            "byteLength" : 11136,
            "byteOffset" : 33408
        },
        {
            "buffer" : 0,
            "byteLength" : 3288,
            "byteOffset" : 44544
        },
        {
            "buffer" : 0,
            "byteLength" : 4344,
            "byteOffset" : 47832
        },
        {
            "buffer" : 0,
            "byteLength" : 523295,
            "byteOffset" : 52176
        }
    ],
    "buffers" : [
        {
            "byteLength" : 575472,
            "uri" : "data:application/octet-stream;base64,"
        }
    ]
}
