{
    "asset" : {
        "generator" : "Khronos glTF Blender I/O v1.1.46",
        "version" : "2.0"
    },
    "scene" : 0,
    "scenes" : [
        {
            "name" : "Scene",
            "nodes" : [
                5
            ]
        }
    ],
    "nodes" : [
        {
            "mesh" : 0,
            "name" : "SM_obj_PipeWall_01 - Default_0"
        },
        {
            "children" : [
                0
            ],
            "name" : "SM_obj_PipeWall",
            "rotation" : [
                -0.7071068286895752,
                0,
                0,
                0.7071068286895752
            ],
            "translation" : [
                -0.24752475321292877,
                0.24752475321292877,
                0
            ]
        },
        {
            "children" : [
                1
            ],
            "name" : "RootNode"
        },
        {
            "children" : [
                2
            ],
            "name" : "223bc8ae05a742c9b3e03e041a8ac780.fbx",
            "rotation" : [
                0.7071068286895752,
                0,
                0,
                0.7071068286895752
            ]
        },
        {
            "children" : [
                3
            ],
            "name" : "RootNode (model correction matrix)"
        },
        {
            "children" : [
                4
            ],
            "name" : "RootNode (gltf orientation matrix)"
        }
    ],
    "materials" : [
        {
            "emissiveFactor" : [
                1,
                1,
                1
            ],
            "emissiveTexture" : {
                "index" : 0,
                "texCoord" : 0
            },
            "name" : "01_-_Default",
            "normalTexture" : {
                "index" : 1,
                "texCoord" : 0
            },
            "occlusionTexture" : {
                "index" : 2,
                "texCoord" : 0
            },
            "pbrMetallicRoughness" : {
                "baseColorTexture" : {
                    "index" : 3,
                    "texCoord" : 0
                },
                "metallicRoughnessTexture" : {
                    "index" : 2,
                    "texCoord" : 0
                }
            }
        }
    ],
    "meshes" : [
        {
            "name" : "SM_obj_PipeWall_01 - Default_0",
            "primitives" : [
                {
                    "attributes" : {
                        "POSITION" : 0,
                        "NORMAL" : 1,
                        "TEXCOORD_0" : 2
                    },
                    "indices" : 3,
                    "material" : 0
                }
            ]
        }
    ],
    "textures" : [
        {
            "source" : 0
        },
        {
            "source" : 1
        },
        {
            "source" : 2
        },
        {
            "source" : 3
        }
    ],
    "images" : [
        {
            "bufferView" : 4,
            "mimeType" : "image/png",
            "name" : "01_-_Default_emissive"
        },
        {
            "bufferView" : 5,
            "mimeType" : "image/png",
            "name" : "01_-_Default_normal"
        },
        {
            "bufferView" : 6,
            "mimeType" : "image/png",
            "name" : "01_-_Default_metallicRoughness"
        },
        {
            "bufferView" : 7,
            "mimeType" : "image/png",
            "name" : "01_-_Default_baseColor"
        }
    ],
    "accessors" : [
        {
            "bufferView" : 0,
            "componentType" : 5126,
            "count" : 3084,
            "max" : [
                161.2987518310547,
                285.5989685058594,
                52.455299377441406
            ],
            "min" : [
                -156.7467803955078,
                -7.0354461669921875,
                -91.28812408447266
            ],
            "type" : "VEC3"
        },
        {
            "bufferView" : 1,
            "componentType" : 5126,
            "count" : 3084,
            "type" : "VEC3"
        },
        {
            "bufferView" : 2,
            "componentType" : 5126,
            "count" : 3084,
            "type" : "VEC2"
        },
        {
            "bufferView" : 3,
            "componentType" : 5123,
            "count" : 9264,
            "type" : "SCALAR"
        }
    ],
    "bufferViews" : [
        {
            "buffer" : 0,
            "byteLength" : 37008,
            "byteOffset" : 0
        },
        {
            "buffer" : 0,
            "byteLength" : 37008,
            "byteOffset" : 37008
        },
        {
            "buffer" : 0,
            "byteLength" : 24672,
            "byteOffset" : 74016
        },
        {
            "buffer" : 0,
            "byteLength" : 18528,
            "byteOffset" : 98688
        },
        {
            "buffer" : 0,
            "byteLength" : 1834,
            "byteOffset" : 117216
        },
        {
            "buffer" : 0,
            "byteLength" : 733619,
            "byteOffset" : 119052
        },
        {
            "buffer" : 0,
            "byteLength" : 544718,
            "byteOffset" : 852672
        },
        {
            "buffer" : 0,
            "byteLength" : 418594,
            "byteOffset" : 1397392
        }
    ],
    "buffers" : [
        {
            "byteLength" : 1815988,
            "uri" : "data:application/octet-stream;base64,"
        }
    ]
}
